<?xml version="1.0" standalone="no"?>
<!DOCTYPE svg PUBLIC "-//W3C//DTD SVG 20010904//EN"
 "http://www.w3.org/TR/2001/REC-SVG-20010904/DTD/svg10.dtd">
<svg version="1.0" xmlns="http://www.w3.org/2000/svg"
 width="649.000000pt" height="649.000000pt" viewBox="0 0 649.000000 649.000000"
 preserveAspectRatio="xMidYMid meet">
<metadata>
Created by potrace 1.11, written by Peter Selinger 2001-2013
</metadata>
<g transform="translate(0.000000,649.000000) scale(0.100000,-0.100000)"
fill="#000000" stroke="none">
<path d="M2940 6180 c-278 -27 -564 -104 -800 -218 -195 -93 -424 -251 -578
-400 -254 -244 -438 -582 -505 -927 -36 -183 -41 -245 -42 -485 0 -273 9 -332
82 -568 20 -64 39 -148 44 -187 18 -178 116 -337 247 -404 22 -11 57 -37 78
-57 38 -35 171 -137 210 -160 41 -25 3 -24 -45 1 -71 36 -141 48 -188 32 -80
-26 -108 -128 -58 -212 28 -49 68 -71 145 -81 68 -8 60 -5 255 -128 178 -112
245 -173 343 -309 l64 -87 -55 -88 c-183 -289 -272 -500 -293 -688 -5 -50 -2
-75 15 -127 12 -36 31 -77 42 -91 31 -39 160 -106 204 -106 47 0 135 24 197
54 46 23 68 20 68 -9 0 -38 188 -248 252 -281 31 -16 86 -103 71 -112 -5 -4
-43 -33 -84 -64 -69 -52 -78 -56 -115 -51 -136 18 -174 -150 -46 -207 50 -23
81 -25 357 -21 140 2 175 11 210 52 21 26 25 40 25 99 0 38 -7 83 -16 105
l-15 37 51 -7 c28 -4 77 -17 108 -29 31 -12 78 -28 103 -35 l47 -13 4 -64 c3
-50 9 -69 28 -90 45 -47 73 -56 178 -53 54 1 138 -1 188 -6 151 -13 253 23
276 97 10 34 15 38 52 42 182 22 230 28 296 42 73 15 78 15 139 -5 85 -28 205
-28 293 -1 227 70 415 309 458 581 20 131 -21 356 -77 421 -14 16 -17 16 -40
1 -20 -13 -28 -14 -48 -3 -22 12 -28 11 -49 -9 -18 -17 -30 -20 -51 -15 -42
10 -105 81 -129 144 -25 65 -69 100 -128 100 -52 0 -152 -34 -212 -73 -27 -17
-51 -27 -53 -21 -2 6 -30 64 -62 130 -33 65 -58 120 -57 122 2 1 17 -3 35 -9
68 -24 165 13 206 78 17 28 26 32 63 33 58 0 101 20 139 63 36 41 48 86 41
156 -6 63 -37 104 -93 127 -36 15 -45 24 -45 44 0 14 -4 31 -9 39 -7 10 0 28
20 58 40 57 60 67 106 52 48 -16 137 -6 201 21 96 41 164 146 164 251 0 67
-19 108 -67 145 -44 33 -134 42 -213 21 -48 -13 -54 -13 -73 4 -24 21 -29 14
66 94 33 28 81 63 106 78 123 71 228 256 229 407 0 19 16 84 35 144 19 59 47
163 62 230 26 114 27 136 27 366 0 314 -20 459 -100 705 -84 259 -231 494
-433 693 -214 210 -476 378 -766 489 -119 45 -374 111 -505 129 -131 18 -454
26 -580 14z m703 -1313 c35 -176 111 -374 177 -455 25 -32 40 -40 89 -50 64
-13 321 -89 329 -97 3 -3 -8 -5 -25 -5 -56 0 -252 -40 -321 -65 -69 -26 -126
-68 -119 -88 10 -30 36 -31 100 -3 93 39 195 64 322 77 85 9 114 16 127 31 16
18 20 17 122 -28 124 -54 198 -103 242 -161 89 -117 109 -295 47 -430 -16 -35
-72 -63 -124 -63 -37 0 -50 -27 -23 -47 14 -11 40 -14 101 -11 l82 4 -5 -25
c-15 -66 -69 -214 -104 -286 -69 -143 -238 -375 -305 -419 -22 -14 -27 -14
-67 4 -24 11 -51 20 -60 20 -28 0 -40 -35 -32 -99 6 -56 5 -60 -20 -76 -21
-14 -31 -15 -57 -6 -39 14 -35 14 -53 -5 -9 -8 -16 -28 -16 -44 0 -25 -8 -34
-65 -65 -330 -185 -774 -249 -1165 -169 -109 23 -281 80 -387 129 l-91 43 -7
58 c-3 33 -8 65 -10 72 -9 26 -35 23 -79 -9 l-46 -32 -41 28 c-52 36 -69 62
-69 101 0 17 -8 38 -18 47 -16 15 -20 15 -40 1 -20 -14 -25 -14 -52 6 -93 66
-272 330 -341 502 -16 39 -69 212 -69 224 0 1 30 -1 68 -3 77 -6 125 8 120 35
-2 12 -15 18 -46 20 -164 12 -194 336 -46 511 41 49 107 90 249 153 138 61
158 67 149 43 -10 -26 16 -45 61 -45 109 0 288 -42 432 -101 38 -15 64 0 56
32 -15 57 -285 139 -458 139 -27 0 -45 4 -40 8 13 12 242 78 330 96 235 49
440 73 679 82 166 7 180 9 205 30 52 43 146 191 216 337 39 80 72 146 75 146
3 1 13 -41 23 -92z m-2252 -1269 c30 -29 66 -63 80 -74 19 -16 28 -35 34 -70
8 -57 68 -241 96 -296 26 -50 24 -62 -12 -92 -44 -37 -68 -40 -132 -16 -138
52 -252 248 -234 401 8 66 44 145 79 174 16 14 31 25 32 25 2 0 27 -24 57 -52z
m3677 -8 c27 -40 52 -121 52 -170 0 -98 -55 -224 -129 -299 -54 -53 -147 -97
-187 -87 -27 7 -84 53 -84 68 0 6 17 54 39 107 36 92 81 246 81 281 0 9 21 32
48 52 26 20 62 53 81 72 32 32 37 35 55 22 12 -7 31 -28 44 -46z m-360 -768
c46 -36 45 -43 -3 -60 -16 -5 -38 -13 -47 -17 -16 -6 -18 0 -18 60 0 74 -2 73
68 17z m-2899 -114 c1 -22 -18 -23 -45 -4 -19 14 -18 15 6 41 l25 27 6 -24 c4
-13 7 -31 8 -40z m2538 -70 l31 -24 -50 -28 c-27 -15 -51 -26 -53 -24 -2 2 -7
32 -11 67 l-7 63 29 -15 c16 -9 43 -26 61 -39z m-2312 -56 c-5 -5 -65 18 -65
25 0 2 12 15 27 29 l28 26 8 -38 c4 -20 5 -39 2 -42z m238 -84 c-1 -18 -2 -34
-2 -36 -1 -1 -15 5 -31 13 l-30 16 27 23 c15 13 30 23 33 21 3 -2 4 -18 3 -37z
m1869 16 l30 -16 -31 -19 c-43 -26 -48 -24 -43 16 5 40 4 40 44 19z m-207
-169 c-31 -25 -45 -31 -45 -17 0 7 55 40 70 41 3 1 -8 -10 -25 -24z m-119 -76
c9 -15 -29 -47 -62 -51 -21 -2 -30 -9 -32 -24 -2 -12 -12 -30 -23 -40 -19 -17
-19 -16 -21 29 -1 26 -2 54 -2 64 -1 11 15 22 49 33 49 17 75 14 91 -11z
m-1076 -29 c8 -5 11 -10 5 -10 -5 0 -17 5 -25 10 -8 5 -10 10 -5 10 6 0 17 -5
25 -10z m868 -45 c-2 -2 -16 -5 -33 -7 -25 -2 -31 1 -33 19 -3 18 3 24 30 31
30 8 33 6 36 -16 2 -13 2 -25 0 -27z m-578 5 c126 -11 391 0 437 17 14 6 15
-3 9 -81 -5 -77 -12 -117 -31 -203 -3 -12 -17 -25 -34 -31 -27 -10 -46 -2
-218 91 -103 55 -231 123 -283 151 -107 58 -131 89 -56 75 25 -4 104 -13 176
-19z m1679 -76 c28 -23 31 -32 31 -81 0 -49 -4 -59 -35 -90 -29 -29 -40 -34
-72 -31 -34 3 -38 6 -44 38 -9 42 1 56 31 40 17 -9 26 -8 46 5 43 28 25 75
-28 75 -28 0 -37 13 -18 25 6 3 10 15 10 26 0 28 42 25 79 -7z m-230 -119 c34
-17 41 -33 41 -86 0 -51 -13 -75 -50 -94 -69 -36 -136 -11 -166 61 -20 47 -18
59 17 99 28 31 36 35 81 35 27 0 62 -7 77 -15z m-2193 -169 l35 -74 -40 -94
c-46 -109 -86 -226 -96 -281 -6 -33 -4 -42 18 -65 14 -15 33 -46 42 -69 9 -23
28 -49 41 -58 16 -11 24 -25 24 -45 0 -37 -15 -38 -64 -5 -53 36 -70 26 -66
-40 2 -43 22 -60 49 -44 18 12 23 11 37 -3 25 -24 11 -45 -38 -58 -24 -6 -59
-16 -80 -22 -46 -13 -70 -7 -133 34 -65 43 -85 83 -85 174 0 159 72 336 257
637 30 48 56 87 59 87 3 0 21 -33 40 -74z m374 -49 c0 -2 -6 -17 -14 -33 -8
-16 -16 -58 -19 -94 l-4 -65 -101 -3 c-118 -3 -120 -2 -76 87 29 57 52 76 116
96 40 13 98 19 98 12z m1611 -130 c25 -45 60 -114 78 -153 l33 -71 -54 -79
c-29 -43 -62 -106 -73 -139 -10 -33 -22 -64 -26 -68 -3 -5 -22 -2 -41 6 -32
14 -37 13 -74 -9 -54 -33 -74 -32 -74 6 0 23 6 33 24 42 14 6 36 33 50 62 14
28 35 63 47 78 20 24 21 30 9 80 -7 29 -28 96 -47 148 l-35 94 33 29 c29 25
83 55 99 57 3 0 26 -37 51 -83z m-1141 -12 c73 -38 109 -140 76 -218 -39 -95
-222 -104 -281 -14 -39 60 -37 155 3 201 40 44 145 61 202 31z m-817 -208 c-3
-48 -9 -87 -13 -87 -4 0 -13 7 -20 15 -11 13 -9 29 10 90 13 41 25 74 26 72 2
-2 1 -42 -3 -90z m316 20 c6 -35 11 -69 11 -75 0 -9 -35 -12 -121 -12 l-121 0
7 68 c4 37 9 70 12 75 2 4 48 7 103 7 l98 0 11 -63z m1446 -12 c16 -45 17 -59
7 -73 -7 -9 -21 -35 -31 -57 l-20 -40 0 35 c-1 63 12 199 19 195 3 -2 15 -29
25 -60z m578 25 c-6 -42 14 -103 49 -152 38 -54 130 -99 206 -100 42 0 113 37
134 72 8 12 24 20 39 20 32 0 43 -21 65 -132 90 -445 -347 -896 -690 -710 -56
31 -124 120 -150 196 -23 72 -39 220 -32 301 22 241 130 426 299 510 38 19 73
35 77 35 5 0 6 -18 3 -40z m114 -2 c16 -59 57 -118 101 -148 34 -23 35 -25 14
-28 -24 -4 -96 34 -124 64 -27 31 -43 100 -30 129 16 36 26 31 39 -17z m-2073
-214 c28 -32 38 -36 101 -44 39 -5 111 -9 161 -10 l91 0 11 -39 c7 -21 12 -41
12 -45 0 -3 -148 -6 -329 -6 -291 0 -330 2 -335 16 -3 9 -6 51 -6 94 l0 78
132 -4 131 -5 31 -35z m1512 -169 c10 -8 14 -15 7 -15 -19 0 -43 11 -43 21 0
13 14 11 36 -6z m-86 -35 c0 -5 18 -15 40 -21 40 -12 56 -39 23 -39 -59 0
-114 34 -97 61 7 12 34 12 34 -1z m-1002 -102 c12 -46 22 -86 22 -90 0 -5
-135 -8 -299 -8 l-299 0 -27 31 c-14 18 -40 58 -56 90 l-29 59 333 0 332 0 23
-82z m1078 -66 c-4 -3 -14 2 -24 12 -16 18 -16 18 6 6 13 -6 21 -14 18 -18z
m-999 -192 l32 -90 -96 0 c-104 0 -134 11 -225 82 -57 45 -103 60 -175 57 -52
-2 -69 2 -91 19 l-27 21 275 0 276 1 31 -90z m-372 -49 c51 -23 59 -33 80
-106 9 -33 25 -75 35 -95 31 -60 34 -102 12 -130 -19 -23 -27 -25 -119 -26
-54 0 -145 -4 -203 -9 -86 -6 -112 -5 -143 8 -44 19 -56 42 -33 65 13 14 22
14 58 5 41 -11 42 -11 112 41 39 29 91 71 116 93 l45 41 -22 66 -21 66 21 0
c12 0 40 -9 62 -19z m440 -111 c7 -12 -12 -12 -40 0 -18 8 -17 9 7 9 15 1 30
-3 33 -9z m295 -175 c47 -8 147 -18 223 -22 108 -5 137 -9 137 -20 0 -8 -17
-21 -37 -30 -31 -13 -57 -14 -143 -8 -58 5 -148 9 -201 9 -110 1 -139 15 -139
69 0 34 -7 34 160 2z"/>
<path d="M2217 3989 c-68 -16 -146 -60 -201 -112 -92 -88 -133 -201 -123 -336
8 -116 38 -184 112 -258 55 -54 72 -64 144 -87 55 -18 105 -26 152 -26 63 0
69 -2 69 -20 0 -34 48 -118 91 -161 97 -97 289 -134 470 -91 l77 19 -5 -56
c-3 -44 0 -63 15 -87 27 -42 84 -68 138 -61 52 5 74 21 74 52 0 33 -24 48 -63
41 -35 -6 -77 14 -77 38 0 7 11 25 25 40 27 29 31 47 15 76 -8 14 -5 21 15 34
24 16 27 15 70 -14 150 -103 403 -130 562 -60 84 37 193 168 193 232 0 15 9
18 63 18 242 1 398 141 414 371 16 227 -129 414 -351 452 -268 46 -505 -176
-483 -453 11 -151 90 -264 229 -330 67 -31 76 -39 65 -52 -24 -30 -62 -48
-102 -48 -48 0 -94 27 -209 124 -84 70 -160 106 -225 106 -54 0 -126 -24 -167
-55 -32 -24 -37 -25 -52 -12 -78 68 -217 84 -307 34 -27 -15 -89 -61 -137
-101 -131 -111 -189 -123 -266 -53 l-22 21 69 32 c122 56 195 140 225 260 38
147 1 296 -100 404 -96 102 -259 151 -397 119z m159 -90 c186 -34 298 -219
250 -409 -22 -84 -53 -131 -118 -174 -140 -95 -341 -75 -452 44 -73 78 -99
216 -61 329 32 96 144 194 242 211 69 11 73 11 139 -1z m1720 0 c75 -13 130
-45 185 -107 78 -86 100 -203 64 -329 -57 -196 -352 -274 -528 -139 -79 61
-111 132 -111 251 0 94 25 163 81 225 53 59 87 79 163 96 71 16 75 16 146 3z
m-1041 -658 c33 -16 73 -42 88 -59 l29 -30 42 43 c57 57 131 83 189 65 53 -15
107 -50 190 -122 80 -69 134 -98 182 -98 19 0 35 -4 35 -9 0 -18 -108 -60
-180 -72 -152 -23 -326 30 -428 132 l-33 32 -42 -40 c-56 -53 -86 -71 -168
-98 -93 -32 -163 -39 -249 -26 -72 12 -180 54 -180 72 0 5 16 9 35 9 48 0 102
29 182 98 101 87 174 129 228 131 11 1 47 -12 80 -28z"/>
<path d="M2236 3765 c-58 -21 -88 -46 -113 -95 -57 -111 3 -259 118 -290 87
-24 171 6 232 83 41 50 49 134 18 194 -28 56 -84 100 -143 113 -61 12 -64 12
-112 -5z"/>
<path d="M3985 3769 c-89 -22 -146 -89 -153 -180 -14 -184 218 -291 349 -160
73 73 78 210 11 284 -44 49 -136 74 -207 56z"/>
<path d="M3097 3511 c-56 -60 -59 -85 -18 -145 39 -56 56 -69 81 -61 28 9 26
49 -5 90 l-26 33 33 46 c26 37 30 50 22 64 -19 30 -39 24 -87 -27z"/>
<path d="M4395 1946 c-20 -15 -17 -44 7 -59 12 -8 21 -7 32 2 36 30 -1 85 -39
57z"/>
<path d="M2990 1607 c-47 -24 -61 -80 -36 -142 31 -73 137 -86 176 -22 37 60
18 132 -44 161 -41 19 -63 20 -96 3z"/>
<path d="M4724 1246 c2 -14 -1 -27 -7 -29 -6 -2 -2 -7 8 -11 11 -4 16 -4 12 0
-4 4 0 12 8 18 14 10 13 13 -5 29 -20 17 -20 16 -16 -7z"/>
<path d="M4456 1231 c-15 -17 -15 -18 6 -16 23 2 35 19 20 29 -5 3 -17 -3 -26
-13z"/>
<path d="M4485 1200 c-3 -5 -2 -10 4 -10 5 0 13 5 16 10 3 6 2 10 -4 10 -5 0
-13 -4 -16 -10z"/>
<path d="M4410 1097 c0 -7 -9 -23 -20 -35 -16 -17 -18 -26 -11 -40 9 -15 10
-15 11 6 0 12 4 22 8 22 4 0 13 14 19 30 6 17 7 30 2 30 -5 0 -9 -6 -9 -13z"/>
<path d="M4747 1103 c-12 -12 -7 -51 7 -56 10 -4 13 2 12 23 -2 32 -9 44 -19
33z"/>
<path d="M4952 1070 c0 -14 2 -19 5 -12 2 6 2 18 0 25 -3 6 -5 1 -5 -13z"/>
<path d="M4569 1072 c11 -8 11 -10 0 -14 -9 -3 -8 -6 4 -11 9 -3 17 -2 17 3 0
6 8 10 17 10 23 0 14 6 -22 14 -19 4 -25 3 -16 -2z"/>
<path d="M4641 1054 c0 -11 3 -14 6 -6 3 7 2 16 -1 19 -3 4 -6 -2 -5 -13z"/>
<path d="M4524 988 c0 -23 3 -33 8 -25 4 7 8 -7 8 -33 0 -33 -3 -41 -10 -30
-14 22 -12 7 5 -34 8 -20 22 -36 29 -36 8 0 17 -6 19 -12 4 -9 6 -10 6 -1 1 6
-7 19 -16 29 -12 11 -19 38 -21 80 -3 35 -8 64 -12 64 -5 0 -10 8 -13 18 -2 9
-4 0 -3 -20z"/>
<path d="M4570 1000 c0 -5 5 -10 10 -10 6 0 10 5 10 10 0 6 -4 10 -10 10 -5 0
-10 -4 -10 -10z"/>
<path d="M4727 955 c-4 -39 -2 -64 5 -70 7 -7 9 -6 5 1 -4 6 -2 25 3 42 4 17
5 44 1 59 -6 24 -9 19 -14 -32z"/>
<path d="M4360 985 c0 -8 5 -15 10 -15 15 0 13 -157 -2 -162 -7 -3 -8 -9 -3
-18 7 -11 10 -10 16 6 9 23 11 150 3 182 -7 25 -24 30 -24 7z"/>
<path d="M4894 897 c3 -10 0 -36 -8 -57 -8 -22 -10 -40 -5 -40 5 0 9 8 9 18 0
14 2 15 10 2 5 -8 13 -11 17 -6 4 5 2 11 -4 13 -18 7 -16 33 5 56 9 11 11 17
3 12 -8 -4 -17 -2 -23 6 -8 11 -9 10 -4 -4z"/>
<path d="M4685 890 c-3 -5 -2 -10 4 -10 5 0 13 5 16 10 3 6 2 10 -4 10 -5 0
-13 -4 -16 -10z"/>
<path d="M4614 843 c1 -14 6 -28 12 -30 10 -3 11 13 5 50 -3 20 -18 4 -17 -20z"/>
<path d="M4680 839 c0 -5 5 -7 10 -4 6 3 10 8 10 11 0 2 -4 4 -10 4 -5 0 -10
-5 -10 -11z"/>
<path d="M4860 765 c0 -8 4 -15 10 -15 5 0 7 7 4 15 -4 8 -8 15 -10 15 -2 0
-4 -7 -4 -15z"/>
<path d="M4381 750 c0 -8 6 -23 13 -33 12 -16 14 -16 20 -1 9 24 6 42 -4 19
-8 -19 -8 -19 -18 5 -6 14 -11 18 -11 10z"/>
<path d="M4815 670 c-3 -6 1 -7 9 -4 18 7 21 14 7 14 -6 0 -13 -4 -16 -10z"/>
<path d="M4789 658 c15 -20 2 -25 -17 -6 -8 8 -12 8 -12 1 0 -15 31 -26 42
-15 5 5 1 15 -9 23 -16 13 -17 12 -4 -3z"/>
<path d="M4465 630 c4 -6 11 -8 16 -5 14 9 11 15 -7 15 -8 0 -12 -5 -9 -10z"/>
<path d="M4710 600 c8 -5 20 -10 25 -10 6 0 3 5 -5 10 -8 5 -19 10 -25 10 -5
0 -3 -5 5 -10z"/>
<path d="M4603 583 c-24 -2 -43 -8 -43 -13 0 -12 73 -5 97 9 13 8 14 10 3 9
-8 -1 -34 -3 -57 -5z"/>
</g>
</svg>
